<svg id="Calque_2" data-name="Calque 2" xmlns="http://www.w3.org/2000/svg" viewBox="0 0 273.3 140">
  <title>eliquae</title>
  <g>
    <path d="M82,87.8a14.6,14.6,0,0,1-5.7,4.9,15.4,15.4,0,0,1-7.4,1.9,11.5,11.5,0,0,1-6.8-2.2q-3-2.2-3.9-7.2a14.1,14.1,0,0,0,3.7.6L66,86a20.9,20.9,0,0,0,8.1-1.5,19.9,19.9,0,0,0,6.4-4,16.9,16.9,0,0,0,4.1-5.6,11.8,11.8,0,0,0,1.2-6.3c-.4-4.8-2.1-8.4-5.2-10.7s-7-3.5-11.8-3.5A22.7,22.7,0,0,0,59,56.5a19.8,19.8,0,0,0-7.6,5.9c-5.8,7.8-5.8,15.1-5.8,20.2s2.3,10.6,4.3,12.8,7.8,6,14.1,6.4a27.6,27.6,0,0,0,7.6-.7,23,23,0,0,0,6.8-2.7A16.1,16.1,0,0,0,83.3,94c1.3-1.7,2-7,.7-8S82.8,86.6,82,87.8ZM57.6,81.4s-2.2-10.1,2.8-16c2.2-2.5,7.5-4.9,11.1-1.1,1.2,1.2,1.6,3,1.6,5.1a8.3,8.3,0,0,1-1.9,5.2,12.7,12.7,0,0,1-3.9,3.3,24.3,24.3,0,0,1-4.9,2.2l-4.6,1.5Z" transform="translate(-45.6 -21.6)" fill="#1d1d1b"/>
    <path d="M180.1,73.8c-.7-1.4-2.4-2.2-3.9-2.6-3.6-1.2-10.3-.8-10.3-.8s1.3,2.7,1.5,4.4a42.2,42.2,0,0,1,.3,4.3c0,4.3-.7,7.6-2.2,9.9a14.2,14.2,0,0,1-4.6,4.8c-3.6,1.9-6.5,1.7-8.6-.5s-3.2-5.4-3.2-9.6a22,22,0,0,1,.8-5.2,13.3,13.3,0,0,1,3-5.6,17,17,0,0,1,6.1-4.5,24.4,24.4,0,0,1,10.1-1.8c3.9,0,6.7,1.3,8.6,4a6.4,6.4,0,0,0,2.6-5.4,11.4,11.4,0,0,0-1.4-5.4,11.5,11.5,0,0,0-3.7-3.9,17.3,17.3,0,0,0-5.2-2.2,22.2,22.2,0,0,0-5.7-.7,25.7,25.7,0,0,0-11.1,2.4,27.7,27.7,0,0,0-14.3,15.3,28.6,28.6,0,0,0-2,10.3,40.5,40.5,0,0,0,.4,5,10.1,10.1,0,0,1-.7,1.5,27.3,27.3,0,0,1-4.3,6c-1.5,1.5-2.7,2.4-3.8,2.5s-1.5-.9-1.2-3.2l2.2-29a10,10,0,0,0-1.4-5.7,6.9,6.9,0,0,0-3.5-2.6,13.3,13.3,0,0,0-4.5-.7h-4.6c-.3,5.9-.4,10.5-.5,14s-.1,6.2-.2,8.3-.1,3.7-.2,4.8-.1,2-.2,3.1-1.6,3.5-2.3,5.2a11.1,11.1,0,0,1-2.6,3.9,7.7,7.7,0,0,1-3.2,1.9,3,3,0,0,1-2.9-.7c-.9-.7-1.4-2.1-1.6-4.1a97.9,97.9,0,0,1,.1-12c.4-5.1.8-10.5,1.3-16.2s1-11.5,1.6-17.4,1-11.1,1.3-15.8c.1-2.5-.3-4.4-1.4-5.6a7.3,7.3,0,0,0-4.2-2.3,16.2,16.2,0,0,0-5.4-.1l-5.2,1q.8,2.6,1.2,4.5a26,26,0,0,1,.6,4.4,55,55,0,0,1,.1,5.9c-.1,2.3-.1,5.3-.1,9-.1,6.8-.5,14-1,21.7a209.7,209.7,0,0,0-.4,22.3,12,12,0,0,0,3.1,8.2c2.1,2.4,5.2,3,9.3,3a20.8,20.8,0,0,0,5.4-.6,12.7,12.7,0,0,0,5.4-3.2,9.3,9.3,0,0,0,1.6-1.8,8.5,8.5,0,0,0,1.7,3,6.8,6.8,0,0,0,3.8,2.1,25.9,25.9,0,0,0,5.1.5,21.4,21.4,0,0,0,5.4-.8,12.9,12.9,0,0,0,5.3-3,14.8,14.8,0,0,0,3.4-4.5l1.1,1.8a15.7,15.7,0,0,0,4.9,4.7c5.1,3,12.4,1.6,13.8,1.2A13.9,13.9,0,0,0,164,99a15.2,15.2,0,0,0,4.1-4.8c-.3,1.5-1.6,24.4-1.8,32.6a7.2,7.2,0,0,0,2.9,6.5c4.5,3.2,10.2,1.8,10.3,1.7a13.6,13.6,0,0,1-1.3-2.7,10.4,10.4,0,0,1-.3-2.3C177.9,129.7,181.8,77.2,180.1,73.8Z" transform="translate(-45.6 -21.6)" fill="#1d1d1b"/>
    <path d="M317.1,86c-.4-.4-1.2.6-2,1.8a14.6,14.6,0,0,1-5.7,4.9,15.7,15.7,0,0,1-7.4,1.9,11.3,11.3,0,0,1-6.8-2.2q-3.1-2.2-3.9-7.2a13.4,13.4,0,0,0,3.7.6l4.1.2a21.6,21.6,0,0,0,8.1-1.5,19.9,19.9,0,0,0,6.4-4,16.9,16.9,0,0,0,4.1-5.6,14.1,14.1,0,0,0,1.2-6.3c-.4-4.8-2.1-8.4-5.2-10.7a19.2,19.2,0,0,0-11.8-3.5,22.4,22.4,0,0,0-9.8,2.1,23,23,0,0,0-7.6,5.9,24.5,24.5,0,0,0-4.7,8.9,31.8,31.8,0,0,0-1.1,11.3c.1,1.3.2,2.5.4,3.7a23.4,23.4,0,0,1-1.8,4.1,12,12,0,0,1-2.5,3.3,5.4,5.4,0,0,1-2.9,1.5,2.8,2.8,0,0,1-2.4-.9c-.7-.7-1.1-2.1-1.2-4.1a38.4,38.4,0,0,1,.3-6.7c.3-2.3.6-4.6.9-6.7s.5-4.1.7-5.9a10.6,10.6,0,0,0-.3-4.5,15.8,15.8,0,0,0-6.1-8.2,22.2,22.2,0,0,0-19.6-3,17.7,17.7,0,0,0-8.3,5.4,7.6,7.6,0,0,0-1.9,4.9,16,16,0,0,0,.6,5.4,13.7,13.7,0,0,0,1.7,4c.7,1,1.2,1.2,1.6.5a25.7,25.7,0,0,1,5.6-7.7,20.7,20.7,0,0,1,6.9-4.7q3.3-1.2,5.4.9c1.4,1.4,1.8,4.4,1.3,8.9-.1,1.1-.7,1.5-1.6,1.3l-2.6-.3a28.6,28.6,0,0,0-14.7,3.6c-4.1,2.4-6.4,5.7-6.9,10a14.3,14.3,0,0,0,.4,6.2,4.6,4.6,0,0,1-3.6,2.1q-2.2-.2-3-3.3a77,77,0,0,1,1.8-16.5,52.4,52.4,0,0,0,1.6-12.1,9.2,9.2,0,0,0-1.5-5.7,7.9,7.9,0,0,0-3.8-2.7,14.2,14.2,0,0,0-4.5-.8h-5.6a.2.2,0,0,0-.2.2c.3.8,1.1,21,.9,25a34.7,34.7,0,0,1-1.7,9.8,13.6,13.6,0,0,1-2.9,4.3,8,8,0,0,1-3.9,2.3,3.6,3.6,0,0,1-3.6-.9c-4.8-5.8.1-30.2.2-32.1a7.9,7.9,0,0,0-1.6-5.2,7.5,7.5,0,0,0-3.5-2.6,13.2,13.2,0,0,0-4.4-.8h-5.9a.2.2,0,0,0-.2.2c2.1,3.8-.9,30.5,3.9,40.8,1.7,3.7,5.2,6,10.7,6,8.8,0,13-4.4,14.6-8a10.2,10.2,0,0,0,3.2,5.8,9.2,9.2,0,0,0,6.6,2.4,20.1,20.1,0,0,0,5.3-.8,12.7,12.7,0,0,0,4.2-2.4,10.7,10.7,0,0,0,6.1,3,15.3,15.3,0,0,0,9.3-1.4,16.3,16.3,0,0,0,7.5-8c1.1,3.6,2.5,6.1,4.3,7.4a10.2,10.2,0,0,0,4.7,2.2,13.2,13.2,0,0,0,5.6,0,11.4,11.4,0,0,0,5.6-3,18,18,0,0,0,3.8-5.2c3,5,8.1,7.8,15.4,8.2a28,28,0,0,0,7.6-.7,24.2,24.2,0,0,0,6.8-2.7,17.4,17.4,0,0,0,4.9-4.4C317.7,92.3,318.4,87,317.1,86Zm-59.7-3.2-.3,3.2c-.1,1.1-.2,1.9-.2,2.6a10.2,10.2,0,0,1-5.1,3.4,17.9,17.9,0,0,1-5.3,1.2,3,3,0,0,1-2.8-1.3,3.6,3.6,0,0,1-.4-2.9,7.3,7.3,0,0,1,1.6-3.2,21.8,21.8,0,0,1,3.4-3.4,20.1,20.1,0,0,1,4.1-2.6,8.7,8.7,0,0,1,3.9-1c.5,0,.9.4,1,1.2A12.4,12.4,0,0,1,257.4,82.8Zm33.3-1.4s-2.3-10.1,2.8-16c2.2-2.5,7.4-4.9,11.1-1.1a7.4,7.4,0,0,1,1.6,5.1,8.3,8.3,0,0,1-1.9,5.2,15.5,15.5,0,0,1-3.9,3.3,27.1,27.1,0,0,1-4.9,2.2l-4.6,1.5Z" transform="translate(-45.6 -21.6)" fill="#1d1d1b"/>
    <path d="M157.8,62.9" transform="translate(-45.6 -21.6)" fill="none" stroke="#1d1d1b" stroke-miterlimit="10" stroke-width="0.75"/>
    <text x="-45.6" y="-21.6"/>  </g>
</svg>
