<svg id="Calque_2" data-name="Calque 2" xmlns="http://www.w3.org/2000/svg" xmlns:xlink="http://www.w3.org/1999/xlink" viewBox="0 0 117.5 196.4">
  <defs>
    <clipPath id="clip-path" transform="translate(-124.8 3.9)">
      <path d="M154.6,71.3a20.5,20.5,0,0,1-7.4-1.1,28,28,0,0,1-6.9-3.5,26.2,26.2,0,0,1-5.7-5.8,25.6,25.6,0,0,1-2.2-3.5l-.9-1.9a14.6,14.6,0,0,1-.7-1.9,33.2,33.2,0,0,1-1.6-8.1,52.2,52.2,0,0,1,.3-7.9,39.6,39.6,0,0,1,5.3-15,38.8,38.8,0,0,1,10.4-11.9,47.9,47.9,0,0,1,13.7-7.4A49.3,49.3,0,0,1,174.1.9a45,45,0,0,1,15,2.5,45.5,45.5,0,0,1,24,18.3,42,42,0,0,1,6.1,29.6,46.1,46.1,0,0,1-2.1,7.5,41.2,41.2,0,0,1-3.4,7,44.7,44.7,0,0,1-10.1,11.6,49.5,49.5,0,0,1-13.3,7.8c-4.9,1.9-6,1.9-6,1.9h0l1.6,54.8a11,11,0,0,1-10.6,11.2,10.8,10.8,0,0,1-11.1-10.6.6.6,0,0,1,0-.6L166,79.7v-.3a9,9,0,0,1,9-8.8h0a28.2,28.2,0,0,0,19.7-4.8,26.9,26.9,0,0,0,11.4-16.9,25.8,25.8,0,0,0-4.2-19.8,30.2,30.2,0,0,0-17-11.8,34.3,34.3,0,0,0-20.8,1,32.1,32.1,0,0,0-8.8,5.1,28,28,0,0,0-6.7,7.5A25.5,25.5,0,0,0,145,40a21.2,21.2,0,0,0-.5,5,38.7,38.7,0,0,0,.3,4.8,25.8,25.8,0,0,0,3.3,9.1,32.2,32.2,0,0,0,3.3,4.5c1.2,1.4,2.8,2.9,4.2,4.3l.3.3a1.9,1.9,0,0,1,.1,2.7A2,2,0,0,1,154.6,71.3Z" fill="none"/>
    </clipPath>
    <clipPath id="clip-path-2" transform="translate(-124.8 3.9)">
      <circle cx="174.5" cy="169.3" r="13" fill="none"/>
    </clipPath>
    <clipPath id="clip-path-3" transform="translate(-124.8 3.9)">
      <path d="M196.6,96.7a94,94,0,0,1,14,13.5A104.8,104.8,0,0,1,222,126.1a136.4,136.4,0,0,1,8.8,17.5l1.8,4.6c.6,1.5,1.2,3,1.7,4.5,1.2,3,1.9,6.3-.5,10.2a6.3,6.3,0,0,1-8.2,2.6l-.4-.2a8.2,8.2,0,0,1-2.6-1.6,7,7,0,0,1-1.6-1.9,8.4,8.4,0,0,1-1.1-2.1l-.6-2.1c-.4-1.5-.9-2.9-1.3-4.4s-.9-2.8-1.4-4.3c-1.9-5.7-3.9-11.3-6.2-16.8s-5-11-7.9-16.3-6.1-10.5-9.5-15.7h0a2.4,2.4,0,0,1,.7-3.5A2.6,2.6,0,0,1,196.6,96.7Z" fill="none"/>
    </clipPath>
  </defs>
  <title>R</title>
  <g clip-path="url(#clip-path)">
    <path d="M158.6,71.6c-19.2-9.4-25.8-23.2-19.4-41.5,8-12.6,20.2-19.3,35.3-21.9,18.8,1.9,30.9,12.1,39.5,26.9-.1,18.5-8.4,31.7-21.4,41.9-6.4,3.9-12.5,5.9-18.1,4.7l.4,73" transform="translate(-124.8 3.9)" fill="none" stroke="#1d1d1b" stroke-miterlimit="10" stroke-width="24"/>
  </g>
  <g clip-path="url(#clip-path-2)">
    <line x1="64.2" y1="163" x2="32.8" y2="181.2" fill="none" stroke="#1d1d1b" stroke-miterlimit="10" stroke-width="35"/>
  </g>
  <g clip-path="url(#clip-path-3)">
    <path d="M190.9,94.3c17.7,22.4,33.3,46.5,42.9,75.7" transform="translate(-124.8 3.9)" fill="none" stroke="#1d1d1b" stroke-miterlimit="10" stroke-width="18"/>
  </g>
</svg>
