<svg id="Calque_2" data-name="Calque 2" xmlns="http://www.w3.org/2000/svg" xmlns:xlink="http://www.w3.org/1999/xlink" viewBox="0 0 389.6 213.2">
  <defs>
    <clipPath id="clip-path" transform="translate(10.5 22.5)">
      <path d="M362.7,95.8c-.4-.3-1.2.6-2,1.8a13.8,13.8,0,0,1-5.7,4.9,15.4,15.4,0,0,1-7.4,1.9,11.5,11.5,0,0,1-6.8-2.2q-3-2.1-3.9-7.2a14.1,14.1,0,0,0,3.7.6,33.4,33.4,0,0,0,4.1.2,20.9,20.9,0,0,0,8.1-1.5,19.9,19.9,0,0,0,6.4-4,15.9,15.9,0,0,0,4.1-5.6,11.5,11.5,0,0,0,1.2-6.3c-.4-4.8-2.1-8.3-5.2-10.7s-7-3.5-11.8-3.5a22.7,22.7,0,0,0-9.8,2.1,24,24,0,0,0-7.6,5.9,25.3,25.3,0,0,0-4.7,8.9,34.2,34.2,0,0,0-1.1,11.3c.1,1.3.3,2.5.5,3.7a29.6,29.6,0,0,1-1.9,4.1,8.5,8.5,0,0,1-2.5,3.3,5.1,5.1,0,0,1-2.9,1.5,2.4,2.4,0,0,1-2.4-.9,8,8,0,0,1-1.2-4.1,38.8,38.8,0,0,1,.3-6.7c.4-2.3.7-4.5.9-6.7s.5-4.1.7-5.9a10.6,10.6,0,0,0-.3-4.5,16.2,16.2,0,0,0-6.1-8.2,22.8,22.8,0,0,0-9.4-3.8,23.6,23.6,0,0,0-10.2.8,18.2,18.2,0,0,0-8.3,5.4,7.9,7.9,0,0,0-1.9,4.9,22.3,22.3,0,0,0,.6,5.4,17.1,17.1,0,0,0,1.7,4c.7,1,1.2,1.2,1.6.5a29.1,29.1,0,0,1,5.6-7.7,20.7,20.7,0,0,1,6.9-4.7q3.3-1.2,5.4.9c1.4,1.4,1.9,4.4,1.3,8.9-.1,1.1-.6,1.5-1.6,1.3l-2.6-.3a28.6,28.6,0,0,0-14.7,3.6,13.6,13.6,0,0,0-6.9,10,14.2,14.2,0,0,0,.4,6.2q-1.7,2.3-3.6,2.1t-3-3.3a92.4,92.4,0,0,1,1.8-16.5,52.4,52.4,0,0,0,1.6-12.1,9.2,9.2,0,0,0-1.5-5.7,9.8,9.8,0,0,0-3.7-2.7,14.8,14.8,0,0,0-4.6-.8h-5.6l-.2.2c.3.8,1.1,21,.9,25a31.4,31.4,0,0,1-1.7,9.8,11.3,11.3,0,0,1-2.9,4.3,6.7,6.7,0,0,1-3.9,2.3,3.4,3.4,0,0,1-3.6-.9c-4.8-5.7.2-30.2.2-32.1a7.5,7.5,0,0,0-1.6-5.2,8.3,8.3,0,0,0-3.5-2.6,12.7,12.7,0,0,0-4.4-.8h-5.9l-.2.2c2.1,3.8-.8,30.6,3.9,40.8,1.8,3.7,5.3,6,10.7,6,8.8,0,13-4.4,14.6-8a10.2,10.2,0,0,0,3.2,5.8,9.6,9.6,0,0,0,6.6,2.4,16.3,16.3,0,0,0,5.3-.8,10,10,0,0,0,4.2-2.4,11,11,0,0,0,6.1,3,14.6,14.6,0,0,0,9.3-1.4c3.2-1.4,5.7-4.1,7.5-8,1.1,3.6,2.5,6.1,4.3,7.4a9.3,9.3,0,0,0,4.7,2.2,13.2,13.2,0,0,0,5.6,0,11.4,11.4,0,0,0,5.6-3,21.4,21.4,0,0,0,3.9-5.1q4.5,7.5,15.3,8.1a24.2,24.2,0,0,0,7.6-.7,23,23,0,0,0,6.8-2.7,14.9,14.9,0,0,0,4.9-4.4C363.3,102.1,364,96.9,362.7,95.8ZM303,92.6a16.6,16.6,0,0,1-.3,3.2c-.1,1.1-.2,2-.2,2.6a9.4,9.4,0,0,1-5.1,3.4,17.9,17.9,0,0,1-5.3,1.2,3.1,3.1,0,0,1-2.8-1.3,4,4,0,0,1-.4-2.9,8.6,8.6,0,0,1,1.6-3.2,27.3,27.3,0,0,1,3.4-3.4,31,31,0,0,1,4.1-2.6,10.2,10.2,0,0,1,3.9-1c.6,0,.9.4,1,1.2A8.6,8.6,0,0,1,303,92.6Zm33.3-1.4s-2.2-10.1,2.8-16c2.2-2.5,7.5-4.8,11.1-1.1,1.2,1.2,1.6,3,1.6,5.1a8.3,8.3,0,0,1-1.9,5.2,10.4,10.4,0,0,1-3.9,3.3,24.3,24.3,0,0,1-4.9,2.2l-4.6,1.5Z" fill="none"/>
    </clipPath>
    <clipPath id="clip-path-2" transform="translate(10.5 22.5)">
      <path d="M225.7,83.7c-.7-1.5-2.3-2.2-3.9-2.7-3.6-1.1-10.3-.8-10.3-.8s1.3,2.7,1.5,4.5a40.5,40.5,0,0,1,.3,4.3c0,4.2-.7,7.5-2.2,9.8a13.7,13.7,0,0,1-4.6,4.9c-3.6,1.8-6.4,1.7-8.6-.5s-3.2-5.4-3.2-9.7a22,22,0,0,1,.8-5.1,17.4,17.4,0,0,1,3-5.7,17,17,0,0,1,6.1-4.5,24.4,24.4,0,0,1,10.1-1.8c3.9,0,6.8,1.4,8.6,4a5.8,5.8,0,0,0,2.6-5.4,10.9,10.9,0,0,0-1.4-5.4,11.2,11.2,0,0,0-3.7-3.8,16.4,16.4,0,0,0-5.2-2.3,27.8,27.8,0,0,0-5.7-.7,25.7,25.7,0,0,0-11.1,2.4,27.8,27.8,0,0,0-8.7,6.3,29.7,29.7,0,0,0-5.6,9,29,29,0,0,0-2,10.3,28.4,28.4,0,0,0,.5,5.1l-.8,1.4a27.3,27.3,0,0,1-4.3,6c-1.4,1.6-2.7,2.4-3.8,2.5s-1.4-.9-1.2-3.2l2.2-29c0-2.5-.4-4.4-1.4-5.7a7.5,7.5,0,0,0-3.5-2.6,16.3,16.3,0,0,0-4.5-.7h-4.6c-.2,5.9-.4,10.6-.5,14s-.1,6.3-.2,8.3-.1,3.7-.2,4.8-.1,2-.2,3.1-1.6,3.5-2.3,5.2a9.9,9.9,0,0,1-2.6,3.9,6.4,6.4,0,0,1-3.2,1.9,2.9,2.9,0,0,1-2.9-.7c-.9-.7-1.4-2.1-1.5-4.1a69.2,69.2,0,0,1,.1-12q.5-7.5,1.2-16.2c.5-5.7,1-11.5,1.6-17.4s1.1-11.1,1.3-15.8c.2-2.5-.3-4.4-1.4-5.6a8,8,0,0,0-4.1-2.3,19.4,19.4,0,0,0-5.4-.1l-5.3,1a30.8,30.8,0,0,1,1.2,4.5,27.5,27.5,0,0,1,.6,4.4,37.5,37.5,0,0,1,.1,5.9c0,2.3-.1,5.3-.1,9-.1,6.8-.4,14.1-1,21.7s-.6,15.1-.4,22.3a12.1,12.1,0,0,0,3.2,8.2c2.1,2.4,5.1,3.1,9.2,3a16.9,16.9,0,0,0,5.4-.6,12.7,12.7,0,0,0,5.4-3.2,14.9,14.9,0,0,0,1.7-1.8,8.4,8.4,0,0,0,1.6,3,6.8,6.8,0,0,0,3.8,2.1,21,21,0,0,0,5.1.5,16.8,16.8,0,0,0,5.4-.8,12.3,12.3,0,0,0,5.3-3,17.8,17.8,0,0,0,3.5-4.4,9.5,9.5,0,0,0,1,1.7,15.6,15.6,0,0,0,4.9,4.7c5.2,3,12.4,1.6,13.8,1.2a13.9,13.9,0,0,0,4.4-2.2,12.4,12.4,0,0,0,4.1-4.8c-.2,1.5-1.6,24.5-1.8,32.6,0,2.8.9,5.1,2.9,6.5a12.7,12.7,0,0,0,10.3,1.7,13.6,13.6,0,0,1-1.3-2.7,9.7,9.7,0,0,1-.3-2.3C223.5,139.6,227.4,87.1,225.7,83.7Z" fill="none"/>
    </clipPath>
    <clipPath id="clip-path-3" transform="translate(10.5 22.5)">
      <path d="M127.7,97.6a15.2,15.2,0,0,1-5.7,4.9,16,16,0,0,1-7.4,1.9,11.1,11.1,0,0,1-6.8-2.2q-3.1-2.1-3.9-7.2a13.4,13.4,0,0,0,3.7.6,31.8,31.8,0,0,0,4.1.2,21.6,21.6,0,0,0,8.1-1.5,21,21,0,0,0,6.4-4,17.2,17.2,0,0,0,4.1-5.6,13.6,13.6,0,0,0,1.2-6.3c-.4-4.8-2.2-8.3-5.2-10.7a19.2,19.2,0,0,0-11.8-3.5,22.4,22.4,0,0,0-9.8,2.1,19.3,19.3,0,0,0-7.6,5.9c-5.8,7.8-5.8,15.1-5.8,20.2s2.2,10.6,4.3,12.9,7.7,6,14.1,6.3a24.8,24.8,0,0,0,7.6-.7,24.2,24.2,0,0,0,6.8-2.7,16,16,0,0,0,4.9-4.4c1.2-1.7,1.9-6.9.7-8S128.5,96.4,127.7,97.6Zm-24.4-6.4s-2.3-10.1,2.8-16c2.2-2.5,7.4-4.8,11.1-1.1a7.4,7.4,0,0,1,1.6,5.1,8.9,8.9,0,0,1-1.9,5.2,12.3,12.3,0,0,1-3.9,3.3,30.6,30.6,0,0,1-4.9,2.2l-4.6,1.5Z" fill="none"/>
    </clipPath>
    <clipPath id="clip-path-4" transform="translate(10.5 22.5)">
      <path d="M67.5,95.8a105,105,0,0,1,14,13.5,120.8,120.8,0,0,1,11.4,15.9,143.8,143.8,0,0,1,8.7,17.6c.7,1.5,1.3,3,1.9,4.5l1.6,4.5c1.3,3.1,1.9,6.3-.4,10.2a6.5,6.5,0,0,1-8.2,2.7l-.5-.2a8.4,8.4,0,0,1-2.5-1.7,10.1,10.1,0,0,1-1.7-1.9,9.3,9.3,0,0,1-1-2c-.3-.8-.5-1.5-.7-2.2s-.8-2.9-1.3-4.3-.8-2.9-1.3-4.4c-1.9-5.7-3.9-11.3-6.3-16.8a173.6,173.6,0,0,0-7.8-16.3c-2.9-5.3-6.2-10.4-9.6-15.7h0a2.6,2.6,0,0,1,3.7-3.4Z" fill="none"/>
    </clipPath>
    <clipPath id="clip-path-5" transform="translate(10.5 22.5)">
      <path d="M25.5,70.4A21,21,0,0,1,18,69.3a25.8,25.8,0,0,1-6.8-3.5A26.6,26.6,0,0,1,5.4,60a25,25,0,0,1-2.1-3.5,6.6,6.6,0,0,1-.9-1.9c-.3-.6-.5-1.3-.8-1.9a28.2,28.2,0,0,1-1.5-8,35.5,35.5,0,0,1,.3-8,40,40,0,0,1,5.2-15,43,43,0,0,1,4.7-6.5A48.5,48.5,0,0,1,16,9.8,47.9,47.9,0,0,1,29.7,2.4,49.3,49.3,0,0,1,44.9,0,45.6,45.6,0,0,1,60,2.5,45.8,45.8,0,0,1,83.9,20.8,43.2,43.2,0,0,1,89.8,35,40.4,40.4,0,0,1,90,50.5,41.7,41.7,0,0,1,88,58a55.2,55.2,0,0,1-3.4,6.9A47.4,47.4,0,0,1,74.5,76.6a50.8,50.8,0,0,1-13.4,7.7c-4.8,2-6,2-6,2h0L56.7,141a10.8,10.8,0,0,1-10.5,11.2A11,11,0,0,1,35,141.6V141l1.8-62.2v-.3a9.1,9.1,0,0,1,9.1-8.8h0a28.5,28.5,0,0,0,19.7-4.8A26.5,26.5,0,0,0,76.9,48.1a25.5,25.5,0,0,0-4.2-19.9,29.8,29.8,0,0,0-17-11.8,34,34,0,0,0-20.7,1,34.3,34.3,0,0,0-8.9,5.1A31.9,31.9,0,0,0,19.4,30a29.4,29.4,0,0,0-3.6,9.2,27.2,27.2,0,0,0-.5,4.9,25.2,25.2,0,0,0,.4,4.8A23.1,23.1,0,0,0,18.9,58q1.5,2.3,3.3,4.5c1.3,1.4,2.8,3,4.3,4.4l.2.2a1.9,1.9,0,0,1,.1,2.7A1.6,1.6,0,0,1,25.5,70.4Z" fill="none"/>
    </clipPath>
    <clipPath id="clip-path-6" transform="translate(10.5 22.5)">
      <circle cx="45.3" cy="166.3" r="11.5" fill="none"/>
    </clipPath>
  </defs>
  <title>reliquaeVRAI</title>
  <g id="uae">
    <g clip-path="url(#clip-path)">
      <path d="M239.1,61.2a300.4,300.4,0,0,0,1.7,44.6c9,6.4,15.8,2.4,21.3-6.8l3.7-39.9" transform="translate(10.5 22.5)" fill="none" stroke="#1d1d1b" stroke-miterlimit="10" stroke-width="31"/>
      <path d="M262.1,99c5.3,8.5,11.5,11.2,18.8,6.8-1-8.9,2.6-14.1,8.8-17.2l19.9-3.3-5.9-16.1c-10-2.3-16.9,1.7-21.3,10.7" transform="translate(10.5 22.5)" fill="none" stroke="#1d1d1b" stroke-miterlimit="10" stroke-width="31"/>
      <path d="M280.9,105.8c11.9.8,21.9-2.6,28.7-12.8-1.7,4.7-.9,9.7,1.4,14.9,6,1.2,10.2-.4,13.2-3.7l8.2-10.3L353,88.6c5.1-4.3,8-9.2,4.3-15.5-4.1-3.7-8.9-5-14.4-4.5s-11.1,4.9-13.5,11.5-.5,15.2,3.9,22.9a17.5,17.5,0,0,0,11.5,6.1c10.4-2,17.9-6.4,18.9-15.8" transform="translate(10.5 22.5)" fill="none" stroke="#1d1d1b" stroke-miterlimit="10" stroke-width="31"/>
    </g>
  </g>
  <g id="liq">
    <g clip-path="url(#clip-path-2)">
      <path d="M168.6,55" transform="translate(10.5 22.5)" fill="none" stroke="#1d1d1b" stroke-miterlimit="10" stroke-width="29"/>
      <path d="M168.5,63.4a9.5,9.5,0,0,0,6.8-2.5,7.2,7.2,0,0,0,2.6-5.9,7.1,7.1,0,0,0-2.3-5.9,10.1,10.1,0,0,0-13.3,0,8.9,8.9,0,0,0-3,5.9,8.4,8.4,0,0,0,2.7,5.9A8.8,8.8,0,0,0,168.5,63.4Z" transform="translate(10.5 22.5)" fill="none" stroke="#1d1d1b" stroke-miterlimit="10" stroke-width="29"/>
      <path d="M187.6,99.1c4.8,7.6,11.2,10.6,19.5,7.9,9.2-8.2,12.1-17.7,11.8-28v69" transform="translate(10.5 22.5)" fill="none" stroke="#1d1d1b" stroke-miterlimit="10" stroke-width="29"/>
      <path d="M165.4,102c-.7,3.9,1.9,5.8,5.3,7.1,6.1-1.6,11.6-5.2,16.9-10,3.1-25.2,21.7-28.7,40.3-22.5" transform="translate(10.5 22.5)" fill="none" stroke="#1d1d1b" stroke-miterlimit="10" stroke-width="29"/>
      <path d="M145.2,25.8l-2.5,80c4.8,2.3,10.3,3.8,22.7-3.8l5.8-37.6" transform="translate(10.5 22.5)" fill="none" stroke="#1d1d1b" stroke-miterlimit="10" stroke-width="29"/>
    </g>
  </g>
  <g id="e">
    <g clip-path="url(#clip-path-3)">
      <path d="M131.5,91.6c-5.9,16-16,20.9-31.6,11.7-3.9-6.7-3.9-16-3-26.1,4.4-6,12-7.9,19.9-9.3,7.8,4.3,10.7,9.9,8.2,16.9-4.6,7.8-13.2,9.1-23.1,8.5" transform="translate(10.5 22.5)" fill="none" stroke="#1d1d1b" stroke-miterlimit="10" stroke-width="22"/>
    </g>
  </g>
  <g id="barre_du_r" data-name="barre du r">
    <g clip-path="url(#clip-path-4)">
      <path d="M60.9,93.3c18.2,21.3,35,44.7,45.4,77.4" transform="translate(10.5 22.5)" fill="none" stroke="#1d1d1b" stroke-miterlimit="10" stroke-width="29"/>
    </g>
  </g>
  <g id="interogation">
    <g clip-path="url(#clip-path-5)">
      <path d="M45.3,154.1l.6-75.4c14.7-3.3,28.5-8.6,37.4-25.9.6-15.6-2-29.9-13.9-40.6C57.7,6.9,45.5,6.3,33,9.2S10.4,17.8,4.6,38.6c.9,13,15.5,27.2,24.6,32.6" transform="translate(10.5 22.5)" fill="none" stroke="#1d1d1b" stroke-miterlimit="10" stroke-width="30"/>
    </g>
  </g>
  <g clip-path="url(#clip-path-6)">
    <line x1="39.7" y1="198.7" x2="72.6" y2="180.8" fill="none" stroke="#1d1d1b" stroke-miterlimit="10" stroke-width="33"/>
  </g>
</svg>
